<svg xmlns="http://www.w3.org/2000/svg" viewBox="0 0 512 512">
  <defs>
    <style>
      .cls-1 {
        fill: #db2838;
      }

      .cls-2 {
        fill: #00ac62;
      }

      .cls-3 {
        fill: #079566;
      }

      .cls-4 {
        fill: #007c56;
      }

      .cls-5 {
        fill: #19e77c;
      }

      .cls-6 {
        fill: #8cf3be;
      }

      .cls-7 {
        fill: #ff4957;
      }

      .cls-8 {
        fill: #00cd6c;
      }
    </style>
  </defs>
  <title>E Commerce_512px</title>
  <g id="Shopping_Bag" data-name="Shopping Bag">
    <g>
      <g>
        <path class="cls-1" d="M426.66667,202.66667a10.66667,10.66667,0,0,1-21.33334,0V149.33323A106.66655,106.66655,0,0,0,298.66677,42.66667h-.00021A106.66656,106.66656,0,0,0,192,149.33323v53.33344a10.66667,10.66667,0,0,1-21.33333,0V149.33321A127.99987,127.99987,0,0,1,298.66654,21.33333h.00025A127.99988,127.99988,0,0,1,426.66667,149.33321v53.33346Z"/>
        <g>
          <rect class="cls-2" x="21.33333" y="149.33333" width="469.33333" height="341.33333" rx="42.66667" ry="42.66667"/>
          <rect class="cls-3" x="405.33333" y="149.33333" width="85.33333" height="341.33333" rx="42.66662" ry="42.66662"/>
          <rect class="cls-4" x="405.33333" y="448" width="64" height="42.66667" rx="21.33331" ry="21.33331"/>
          <rect class="cls-5" x="21.33333" y="149.33333" width="384" height="341.33333" rx="42.66667" ry="42.66667"/>
          <circle class="cls-2" cx="96" cy="202.66667" r="32"/>
          <circle class="cls-2" cx="330.66667" cy="202.66667" r="32"/>
          <rect class="cls-6" x="64" y="256" width="42.66667" height="170.66667" rx="21.33331" ry="21.33331"/>
        </g>
        <path class="cls-7" d="M341.33333,202.66667a10.66666,10.66666,0,0,1-21.33333,0V149.33323A106.66656,106.66656,0,0,0,213.33344,42.66667h-.00021A106.66655,106.66655,0,0,0,106.66667,149.33323v53.33344a10.66667,10.66667,0,0,1-21.33334,0V149.33321A127.99988,127.99988,0,0,1,213.33321,21.33333h.00025A127.99987,127.99987,0,0,1,341.33333,149.33321v53.33346Z"/>
        <rect class="cls-6" x="149.33333" y="170.66667" width="149.33333" height="21.33333" rx="10.66666" ry="10.66666"/>
        <rect class="cls-4" x="405.33333" y="192" width="42.66667" height="256" rx="21.33331" ry="21.33331"/>
      </g>
      <path class="cls-8" d="M384,192a21.33272,21.33272,0,0,0-21.33333,21.33333V426.66667A21.33334,21.33334,0,0,1,341.33333,448h-256a21.33333,21.33333,0,0,0,0,42.66667H362.66667A42.66666,42.66666,0,0,0,405.33333,448V213.33333A21.33272,21.33272,0,0,0,384,192Z"/>
    </g>
  </g>
</svg>